<svg width="124" height="124" viewBox="0 0 124 124" fill="none" xmlns="http://www.w3.org/2000/svg">
<g id="Group 223">
<g id="Ellipse 60" filter="url(#filter0_d_192_882)">
<circle cx="62" cy="58" r="50" fill="white"/>
</g>
<path id="Vector" d="M73.2428 39.1729H77.2C77.5059 39.1729 77.7987 39.2931 78.0142 39.5062C78.2295 39.7192 78.35 40.0074 78.35 40.3074V61.0761V61.3261H78.6H81.4H81.65V61.0761V40.3074C81.65 39.1386 81.1805 38.0182 80.3456 37.1926C79.5109 36.367 78.3793 35.9037 77.2 35.9037H73.2428C73.181 34.8261 72.7208 33.8054 71.9456 33.0388C71.1109 32.2133 69.9793 31.75 68.8 31.75H57.6C56.4207 31.75 55.2891 32.2133 54.4544 33.0388C53.6792 33.8054 53.219 34.8261 53.1572 35.9037H49.2C48.0207 35.9037 46.8891 36.367 46.0544 37.1926C45.2195 38.0182 44.75 39.1386 44.75 40.3074V79.0755C44.75 80.2444 45.2195 81.3648 46.0544 82.1904C46.8891 83.016 48.0207 83.4793 49.2 83.4793H66H66.25V83.2293V80.4601V80.2101H66H49.2C48.8941 80.2101 48.6013 80.0899 48.3858 79.8768C48.1705 79.6638 48.05 79.3755 48.05 79.0755V40.3074C48.05 40.0074 48.1705 39.7192 48.3858 39.5062C48.6013 39.2931 48.8941 39.1729 49.2 39.1729H53.1572C53.219 40.2505 53.6792 41.2712 54.4544 42.0378C55.2891 42.8633 56.4207 43.3266 57.6 43.3266H68.8C69.9793 43.3266 71.1109 42.8633 71.9456 42.0378C72.7208 41.2712 73.181 40.2505 73.2428 39.1729ZM61.8 48.3649H61.55V48.6149V52.5186H57.6H57.35V52.7686V55.5378V55.7878H57.6H61.55V59.6915V59.9415H61.8H64.6H64.85V59.6915V55.7878H68.8H69.05V55.5378V52.7686V52.5186H68.8H64.85V48.6149V48.3649H64.6H61.8ZM73.4555 80.1809L73.4554 80.1808C72.5307 79.5712 71.7727 78.7455 71.2485 77.7772C70.7244 76.8088 70.4501 75.7277 70.45 74.6297V66.8644H83.95V74.631C83.9499 75.7291 83.6756 76.8102 83.1515 77.7786C82.6273 78.7469 81.8693 79.5726 80.9446 80.1822L80.9445 80.1822L77.2 82.6528L73.4555 80.1809ZM76.9656 77.4631L76.9656 77.463L82.5656 71.9247L82.7453 71.747L82.5656 71.5692L80.586 69.6114L80.4102 69.4376L80.2344 69.6114L75.8 73.997L74.1656 72.3806L73.9898 72.2067L73.814 72.3806L71.8344 74.3384L71.6547 74.5161L71.8344 74.6939L74.6344 77.463L74.6344 77.4631C74.9441 77.7692 75.3634 77.9407 75.8 77.9407C76.2366 77.9407 76.6559 77.7692 76.9656 77.4631ZM56.45 36.1537C56.45 35.8537 56.5705 35.5654 56.7858 35.3524C57.0013 35.1393 57.2941 35.0191 57.6 35.0191H68.8C69.1059 35.0191 69.3987 35.1394 69.6142 35.3524C69.8295 35.5654 69.95 35.8537 69.95 36.1537V38.9229C69.95 39.2229 69.8295 39.5112 69.6142 39.7242C69.3987 39.9372 69.1059 40.0574 68.8 40.0574H57.6C57.2941 40.0574 57.0013 39.9372 56.7858 39.7242C56.5705 39.5112 56.45 39.2229 56.45 38.9229V36.1537ZM67.6343 64.073C67.3245 64.3793 67.15 64.7954 67.15 65.2298V74.6311C67.1503 76.268 67.5592 77.8794 68.3401 79.3222C69.1211 80.7651 70.2499 81.9947 71.6261 82.9021C71.6261 82.9021 71.6262 82.9021 71.6262 82.9021L76.2853 85.9759C76.5564 86.1547 76.8747 86.25 77.2 86.25C77.5253 86.25 77.8436 86.1547 78.1147 85.9759L82.7738 82.9021C82.7738 82.9021 82.7738 82.9021 82.7739 82.9021C84.1503 81.9945 85.2793 80.7647 86.0602 79.3216C86.8412 77.8785 87.2499 76.2668 87.25 74.6297V65.2298C87.25 64.7954 87.0755 64.3793 86.7657 64.073C86.4561 63.7668 86.0367 63.5952 85.6 63.5952H68.8C68.3633 63.5952 67.9439 63.7668 67.6343 64.073Z" fill="#04D8AC" stroke="#04D8AC" stroke-width="0.5"/>
</g>
<defs>
<filter id="filter0_d_192_882" x="0" y="0" width="124" height="124" filterUnits="userSpaceOnUse" color-interpolation-filters="sRGB">
<feFlood flood-opacity="0" result="BackgroundImageFix"/>
<feColorMatrix in="SourceAlpha" type="matrix" values="0 0 0 0 0 0 0 0 0 0 0 0 0 0 0 0 0 0 127 0" result="hardAlpha"/>
<feOffset dy="4"/>
<feGaussianBlur stdDeviation="6"/>
<feComposite in2="hardAlpha" operator="out"/>
<feColorMatrix type="matrix" values="0 0 0 0 0.4125 0 0 0 0 0.4125 0 0 0 0 0.4125 0 0 0 0.25 0"/>
<feBlend mode="normal" in2="BackgroundImageFix" result="effect1_dropShadow_192_882"/>
<feBlend mode="normal" in="SourceGraphic" in2="effect1_dropShadow_192_882" result="shape"/>
</filter>
</defs>
</svg>
