<svg width="60" height="60" viewBox="0 0 60 60" fill="none" xmlns="http://www.w3.org/2000/svg">
<g id="mdi:information-variant">
<path id="Vector" d="M33.7502 10C32.7556 10 31.8018 10.3951 31.0985 11.0983C30.3953 11.8016 30.0002 12.7554 30.0002 13.75C30.0002 14.7446 30.3953 15.6984 31.0985 16.4017C31.8018 17.1049 32.7556 17.5 33.7502 17.5C34.7448 17.5 35.6986 17.1049 36.4018 16.4017C37.1051 15.6984 37.5002 14.7446 37.5002 13.75C37.5002 12.7554 37.1051 11.8016 36.4018 11.0983C35.6986 10.3951 34.7448 10 33.7502 10ZM32.8502 21.925C29.8752 22.175 21.7502 28.65 21.7502 28.65C21.2502 29.025 21.4002 29 21.8002 29.7C22.2002 30.375 22.1502 30.425 22.6252 30.1C23.1252 29.775 23.9502 29.25 25.3252 28.4C30.6252 25 26.1752 32.85 23.9002 46.075C23.0002 52.625 28.9002 49.25 30.4252 48.25C31.9252 47.275 35.9502 44.5 36.3502 44.225C36.9002 43.85 36.5002 43.55 36.0752 42.925C35.7752 42.5 35.4752 42.8 35.4752 42.8C33.8502 43.875 30.8752 46.125 30.4752 44.7C30.0002 43.275 33.0502 33.5 34.7252 26.775C35.0002 25.175 35.7502 21.675 32.8502 21.925Z" fill="#04D8AC"/>
</g>
</svg>
