<svg width="316" height="235" viewBox="0 0 316 235" fill="none" xmlns="http://www.w3.org/2000/svg">
<path d="M0 0L16.3007 5.85559L3.07925 17.0446L0 0ZM35.8664 82.8995L36.6245 81.6052L35.8664 82.8995ZM130.5 142.5L129.854 143.854L130.5 142.5ZM308.117 113.633L309.205 114.666L308.117 113.633ZM238.908 230.038C238.594 229.271 238.961 228.395 239.727 228.081C240.494 227.768 241.37 228.134 241.684 228.901L238.908 230.038ZM238.411 219.931C238.662 220.721 238.226 221.564 237.436 221.815C236.647 222.066 235.803 221.63 235.552 220.84L238.411 219.931ZM233.02 211.24C232.853 210.429 233.374 209.636 234.186 209.468C234.997 209.3 235.79 209.822 235.958 210.633L233.02 211.24ZM234.624 201.234C234.685 202.061 234.064 202.779 233.238 202.84C232.411 202.9 231.693 202.279 231.632 201.453L234.624 201.234ZM231.688 191.5C231.761 190.675 232.49 190.066 233.315 190.14C234.14 190.213 234.749 190.942 234.676 191.767L231.688 191.5ZM236.373 182.484C236.147 183.281 235.318 183.745 234.521 183.519C233.724 183.294 233.26 182.465 233.486 181.668L236.373 182.484ZM237.12 172.347C237.493 171.608 238.395 171.31 239.135 171.683C239.875 172.056 240.172 172.958 239.799 173.698L237.12 172.347ZM244.785 165.657C244.291 166.323 243.352 166.462 242.687 165.968C242.021 165.475 241.882 164.535 242.375 163.87L244.785 165.657ZM248.844 156.341C249.423 155.749 250.373 155.739 250.965 156.319C251.557 156.899 251.566 157.849 250.986 158.44L248.844 156.341ZM258.043 151.967C257.406 152.497 256.461 152.412 255.93 151.775C255.4 151.139 255.485 150.193 256.122 149.663L258.043 151.967ZM263.899 143.646C264.57 143.16 265.508 143.31 265.994 143.981C266.479 144.652 266.329 145.59 265.658 146.076L263.899 143.646ZM273.616 140.578C272.926 141.037 271.995 140.85 271.536 140.16C271.077 139.47 271.265 138.539 271.954 138.08L273.616 140.578ZM280.122 132.754C280.818 132.305 281.746 132.505 282.195 133.201C282.645 133.897 282.445 134.826 281.749 135.275L280.122 132.754ZM289.919 129.948C289.229 130.407 288.298 130.22 287.839 129.531C287.38 128.841 287.566 127.91 288.256 127.451L289.919 129.948ZM296.186 121.927C296.852 121.434 297.792 121.576 298.284 122.242C298.776 122.908 298.635 123.848 297.969 124.34L296.186 121.927ZM305.643 118.128C305.028 118.683 304.08 118.635 303.524 118.02C302.969 117.406 303.017 116.457 303.631 115.902L305.643 118.128ZM309.949 108.62C310.348 107.894 311.26 107.629 311.986 108.029C312.712 108.428 312.976 109.34 312.577 110.066L309.949 108.62ZM315.474 99.2238C315.44 100.051 314.741 100.695 313.913 100.66C313.085 100.626 312.442 99.9267 312.477 99.099L315.474 99.2238ZM311.218 89.0212C311 88.222 311.471 87.3974 312.27 87.1794C313.069 86.9614 313.894 87.4327 314.112 88.2319L311.218 89.0212ZM310.109 78.0655C310.486 78.8029 310.194 79.7067 309.457 80.0842C308.719 80.4616 307.816 80.1698 307.438 79.4323L310.109 78.0655ZM301.949 70.5967C301.458 69.9293 301.601 68.9904 302.269 68.4997C302.936 68.009 303.875 68.1523 304.366 68.8198L301.949 70.5967ZM297.318 60.561C297.899 61.1511 297.892 62.1008 297.302 62.6822C296.712 63.2636 295.762 63.2565 295.181 62.6664L297.318 60.561ZM287.353 55.7905C286.692 55.2912 286.561 54.3506 287.06 53.6895C287.56 53.0285 288.5 52.8974 289.161 53.3967L287.353 55.7905ZM279.98 47.5514C280.714 47.9359 280.997 48.8424 280.613 49.5763C280.228 50.3101 279.322 50.5933 278.588 50.2088L279.98 47.5514ZM269.021 46.3154C268.225 46.0843 267.768 45.252 267.999 44.4565C268.23 43.661 269.062 43.2034 269.858 43.4345L269.021 46.3154ZM259.014 41.6638C259.842 41.6905 260.491 42.3834 260.464 43.2114C260.438 44.0394 259.745 44.689 258.917 44.6623L259.014 41.6638ZM248.824 45.8053C248.024 46.0205 247.201 45.5465 246.986 44.7465C246.771 43.9465 247.245 43.1235 248.045 42.9083L248.824 45.8053ZM237.94 47.3289C238.643 46.8909 239.568 47.1059 240.006 47.8091C240.444 48.5123 240.229 49.4374 239.526 49.8753L237.94 47.3289ZM231.595 56.3481C231.019 56.9431 230.069 56.9581 229.474 56.3816C228.879 55.8051 228.864 54.8555 229.441 54.2605L231.595 56.3481ZM222.635 62.7886C223.094 62.0988 224.025 61.9113 224.715 62.37C225.405 62.8287 225.592 63.7598 225.133 64.4496L222.635 62.7886ZM219.736 73.5744C219.321 74.2916 218.404 74.537 217.686 74.1224C216.969 73.7078 216.724 72.7903 217.138 72.0731L219.736 73.5744ZM211.749 81.1673C212.179 80.4595 213.102 80.2347 213.81 80.6652C214.518 81.0958 214.743 82.0185 214.312 82.7263L211.749 81.1673ZM208.68 91.7225C208.231 92.4186 207.303 92.6188 206.607 92.1697C205.91 91.7206 205.71 90.7922 206.159 90.096L208.68 91.7225ZM200.292 98.8861C200.763 98.2048 201.698 98.0347 202.379 98.5061C203.06 98.9774 203.23 99.9118 202.759 100.593L200.292 98.8861ZM196.524 109.243C196.026 109.905 195.085 110.038 194.424 109.539C193.762 109.041 193.629 108.101 194.127 107.439L196.524 109.243ZM187.601 115.681C188.132 115.046 189.078 114.961 189.714 115.493C190.349 116.024 190.434 116.97 189.902 117.606L187.601 115.681ZM182.773 125.595C182.2 126.193 181.25 126.213 180.652 125.64C180.054 125.066 180.034 124.117 180.607 123.519L182.773 125.595ZM173.052 130.736C173.678 130.194 174.626 130.263 175.167 130.89C175.709 131.516 175.641 132.464 175.014 133.005L173.052 130.736ZM166.415 139.531C165.721 139.983 164.791 139.786 164.34 139.091C163.888 138.397 164.085 137.468 164.78 137.016L166.415 139.531ZM155.664 141.77C156.436 141.47 157.305 141.854 157.605 142.626C157.904 143.398 157.521 144.267 156.749 144.567L155.664 141.77ZM146.025 147.042C145.199 147.098 144.483 146.474 144.426 145.648C144.369 144.821 144.993 144.105 145.819 144.049L146.025 147.042ZM135.866 142.963C136.661 143.196 137.116 144.029 136.883 144.824C136.65 145.619 135.817 146.075 135.022 145.841L135.866 142.963ZM125.261 141.141C124.591 140.655 124.441 139.717 124.927 139.046C125.413 138.375 126.351 138.226 127.022 138.712L125.261 141.141ZM120.742 131.753C121.155 132.471 120.909 133.388 120.191 133.802C119.473 134.216 118.556 133.969 118.143 133.251L120.742 131.753ZM114.6 123.333C114.446 122.519 114.981 121.734 115.795 121.58C116.609 121.426 117.394 121.961 117.548 122.775L114.6 123.333ZM116.78 113.025C116.772 113.853 116.093 114.518 115.265 114.509C114.436 114.501 113.772 113.823 113.78 112.994L116.78 113.025ZM114.496 102.774C114.594 101.952 115.34 101.365 116.163 101.463C116.986 101.561 117.573 102.307 117.475 103.13L114.496 102.774ZM118.973 93.2329C118.829 94.0487 118.051 94.5935 117.235 94.4496C116.42 94.3057 115.875 93.5277 116.019 92.7119L118.973 93.2329ZM117.891 82.7719C118.049 81.9587 118.837 81.4276 119.65 81.5856C120.463 81.7436 120.994 82.5309 120.836 83.3442L117.891 82.7719ZM122.699 73.3848C122.559 74.2011 121.783 74.7488 120.966 74.6081C120.15 74.4673 119.602 73.6914 119.743 72.875L122.699 73.3848ZM121.111 63.0065C121.187 62.1815 121.917 61.5741 122.742 61.6498C123.567 61.7255 124.174 62.4557 124.099 63.2806L121.111 63.0065ZM124.121 52.8829C124.221 53.7052 123.636 54.4533 122.814 54.5538C121.991 54.6543 121.243 54.0692 121.143 53.2469L124.121 52.8829ZM117.896 44.7852C117.358 44.155 117.433 43.2083 118.063 42.6705C118.694 42.1328 119.64 42.2078 120.178 42.838L117.896 44.7852ZM110.587 37.7428C111.402 37.8894 111.945 38.6692 111.798 39.4846C111.651 40.2999 110.872 40.8421 110.056 40.6955L110.587 37.7428ZM101.056 40.8913C100.26 41.122 99.4283 40.6641 99.1976 39.8684C98.9669 39.0728 99.4249 38.2407 100.221 38.01L101.056 40.8913ZM91.6814 43.053C92.2909 42.492 93.2399 42.5313 93.8009 43.1409C94.3619 43.7504 94.3226 44.6994 93.713 45.2604L91.6814 43.053ZM87.9084 52.1261C87.4338 52.8051 86.4987 52.9709 85.8196 52.4964C85.1406 52.0218 84.9748 51.0866 85.4494 50.4076L87.9084 52.1261ZM80.4126 58.393C80.8325 57.6788 81.7518 57.4403 82.466 57.8602C83.1801 58.28 83.4187 59.1993 82.9988 59.9135L80.4126 58.393ZM78.3049 67.9757C77.8825 68.6883 76.9623 68.9234 76.2497 68.501C75.5371 68.0785 75.3019 67.1583 75.7244 66.4457L78.3049 67.9757ZM70.7679 74.1923C71.2484 73.5175 72.1851 73.3601 72.8598 73.8407C73.5346 74.3213 73.6921 75.2579 73.2115 75.9326L70.7679 74.1923ZM66.9379 83.2346C66.328 83.7953 65.3791 83.7555 64.8184 83.1457C64.2577 82.5359 64.2975 81.5869 64.9073 81.0262L66.9379 83.2346ZM57.573 85.6048C58.3552 85.3321 59.2104 85.7451 59.4832 86.5274C59.7559 87.3096 59.3428 88.1649 58.5605 88.4376L57.573 85.6048ZM48.6762 89.3338C47.8556 89.2203 47.2824 88.463 47.3959 87.6424C47.5094 86.8218 48.2667 86.2486 49.0873 86.3621L48.6762 89.3338ZM40.641 83.7236C41.3918 84.0736 41.7168 84.966 41.3669 85.7169C41.0169 86.4677 40.1245 86.7927 39.3736 86.4427L40.641 83.7236ZM31.4344 80.3944C31.0103 79.6828 31.2433 78.7621 31.955 78.338C32.6666 77.9138 33.5873 78.1469 34.0114 78.8585L31.4344 80.3944ZM31.1989 70.6438C31.3797 71.4522 30.871 72.2542 30.0625 72.4351C29.2541 72.6159 28.4521 72.1072 28.2712 71.2987L31.1989 70.6438ZM26.5092 62.2203C26.3591 61.4056 26.8979 60.6235 27.7126 60.4734C28.5273 60.3234 29.3094 60.8622 29.4595 61.6769L26.5092 62.2203ZM27.6683 52.6111C27.8449 53.4205 27.3319 54.2198 26.5225 54.3964C25.7131 54.5729 24.9138 54.0599 24.7372 53.2505L27.6683 52.6111ZM22.5402 44.4234C22.3141 43.6264 22.7769 42.797 23.5739 42.5709C24.3709 42.3449 25.2003 42.8077 25.4263 43.6046L22.5402 44.4234ZM22.5544 34.752C22.8405 35.5294 22.4423 36.3916 21.6648 36.6777C20.8874 36.9639 20.0251 36.5656 19.739 35.7881L22.5544 34.752ZM16.2654 27.4283C15.9157 26.6772 16.2411 25.785 16.9922 25.4353C17.7432 25.0857 18.6355 25.4111 18.9851 26.1622L16.2654 27.4283ZM14.6958 17.8877C15.108 18.6063 14.8596 19.523 14.141 19.9352C13.4224 20.3473 12.5057 20.099 12.0935 19.3803L14.6958 17.8877ZM7.25284 11.7067C6.7822 11.0249 6.95334 10.0907 7.63507 9.62008C8.31683 9.14943 9.25104 9.32056 9.72168 10.0023L7.25284 11.7067ZM4.13342 2.56266C4.65652 3.20504 4.55984 4.14985 3.91745 4.67295C3.27509 5.19606 2.33026 5.09937 1.80716 4.45699L4.13342 2.56266ZM240.878 234.616C240.179 233.066 239.523 231.54 238.908 230.038L241.684 228.901C242.285 230.37 242.928 231.864 243.613 233.384L240.878 234.616ZM235.552 220.84C234.496 217.518 233.657 214.32 233.02 211.24L235.958 210.633C236.572 213.605 237.384 216.701 238.411 219.931L235.552 220.84ZM231.632 201.453C231.378 197.975 231.406 194.662 231.688 191.5L234.676 191.767C234.409 194.76 234.381 197.91 234.624 201.234L231.632 201.453ZM233.486 181.668C234.416 178.377 235.644 175.278 237.12 172.347L239.799 173.698C238.405 176.464 237.249 179.385 236.373 182.484L233.486 181.668ZM242.375 163.87C244.344 161.216 246.518 158.715 248.844 156.341L250.986 158.44C248.744 160.729 246.662 163.127 244.785 165.657L242.375 163.87ZM256.122 149.663C258.63 147.571 261.238 145.573 263.899 143.646L265.658 146.076C263.04 147.972 260.488 149.928 258.043 151.967L256.122 149.663ZM271.954 138.08C274.68 136.267 277.42 134.498 280.122 132.754L281.749 135.275C279.045 137.02 276.322 138.779 273.616 140.578L271.954 138.08ZM288.256 127.451C291.01 125.617 293.669 123.786 296.186 121.927L297.969 124.34C295.399 126.238 292.696 128.099 289.919 129.948L288.256 127.451ZM303.631 115.902C304.831 114.818 305.967 113.719 307.03 112.6L309.205 114.666C308.082 115.847 306.892 116.999 305.643 118.128L303.631 115.902ZM307.03 112.6C308.203 111.366 309.17 110.034 309.949 108.62L312.577 110.066C311.675 111.706 310.554 113.247 309.205 114.666L307.03 112.6ZM312.477 99.099C312.61 95.9081 312.169 92.5117 311.218 89.0212L314.112 88.2319C315.13 91.9665 315.622 95.6738 315.474 99.2238L312.477 99.099ZM307.438 79.4323C305.904 76.4352 304.057 73.4653 301.949 70.5967L304.366 68.8198C306.564 71.8098 308.497 74.9162 310.109 78.0655L307.438 79.4323ZM295.181 62.6664C292.744 60.1924 290.119 57.8797 287.353 55.7905L289.161 53.3967C292.048 55.5769 294.782 57.9866 297.318 60.561L295.181 62.6664ZM278.588 50.2088C275.477 48.579 272.271 47.2596 269.021 46.3154L269.858 43.4345C273.318 44.4398 276.71 45.8379 279.98 47.5514L278.588 50.2088ZM258.917 44.6623C255.531 44.553 252.15 44.9105 248.824 45.8053L248.045 42.9083C251.673 41.9321 255.35 41.5456 259.014 41.6638L258.917 44.6623ZM239.526 49.8753C236.811 51.5661 234.156 53.7057 231.595 56.3481L229.441 54.2605C232.16 51.4539 235.004 49.157 237.94 47.3289L239.526 49.8753ZM225.133 64.4496C224.197 65.8588 223.279 67.3541 222.384 68.9387L219.772 67.4633C220.701 65.8182 221.656 64.2608 222.635 62.7886L225.133 64.4496ZM222.384 68.9387C221.497 70.5098 220.614 72.055 219.736 73.5744L217.138 72.0731C218.012 70.5625 218.889 69.026 219.772 67.4633L222.384 68.9387ZM214.312 82.7263C212.413 85.8478 210.536 88.8458 208.68 91.7225L206.159 90.096C208 87.2429 209.863 84.2674 211.749 81.1673L214.312 82.7263ZM202.759 100.593C200.654 103.636 198.576 106.518 196.524 109.243L194.127 107.439C196.153 104.748 198.208 101.898 200.292 98.8861L202.759 100.593ZM189.902 117.606C187.49 120.49 185.114 123.152 182.773 125.595L180.607 123.519C182.897 121.129 185.228 118.519 187.601 115.681L189.902 117.606ZM175.014 133.005C172.099 135.526 169.233 137.699 166.415 139.531L164.78 137.016C167.469 135.267 170.226 133.179 173.052 130.736L175.014 133.005ZM156.749 144.567C153.1 145.982 149.527 146.801 146.025 147.042L145.819 144.049C148.992 143.831 152.27 143.086 155.664 141.77L156.749 144.567ZM135.022 145.841C133.271 145.328 131.548 144.663 129.854 143.854L131.146 141.146C132.704 141.89 134.277 142.497 135.866 142.963L135.022 145.841ZM129.854 143.854C128.173 143.051 126.646 142.144 125.261 141.141L127.022 138.712C128.252 139.603 129.622 140.418 131.146 141.146L129.854 143.854ZM118.143 133.251C116.402 130.231 115.273 126.885 114.6 123.333L117.548 122.775C118.171 126.065 119.201 129.079 120.742 131.753L118.143 133.251ZM113.78 112.994C113.814 109.67 114.082 106.242 114.496 102.774L117.475 103.13C117.07 106.521 116.812 109.837 116.78 113.025L113.78 112.994ZM116.019 92.7119C116.607 89.3764 117.256 86.0418 117.891 82.7719L120.836 83.3442C120.2 86.6191 119.556 89.9276 118.973 93.2329L116.019 92.7119ZM119.743 72.875C120.339 69.4168 120.827 66.1077 121.111 63.0065L124.099 63.2806C123.804 66.4918 123.302 69.8869 122.699 73.3848L119.743 72.875ZM121.143 53.2469C120.71 49.7091 119.679 46.8744 117.896 44.7852L120.178 42.838C122.472 45.5262 123.645 48.9949 124.121 52.8829L121.143 53.2469ZM110.056 40.6955C108.637 40.4402 107.04 40.304 105.247 40.304V37.304C107.19 37.304 108.967 37.4514 110.587 37.7428L110.056 40.6955ZM105.247 40.304C103.763 40.304 102.372 40.5098 101.056 40.8913L100.221 38.01C101.808 37.5497 103.48 37.304 105.247 37.304V40.304ZM93.713 45.2604C91.6624 47.1478 89.7533 49.4862 87.9084 52.1261L85.4494 50.4076C87.366 47.6652 89.4152 45.1388 91.6814 43.053L93.713 45.2604ZM82.9988 59.9135C81.4662 62.5201 79.8738 65.3295 78.3049 67.9757L75.7244 66.4457C77.3194 63.7553 78.817 61.1069 80.4126 58.393L82.9988 59.9135ZM73.2115 75.9326C71.2899 78.6307 69.2246 81.132 66.9379 83.2346L64.9073 81.0262C66.9912 79.1101 68.9211 76.7853 70.7679 74.1923L73.2115 75.9326ZM58.5605 88.4376C55.5764 89.4778 52.3014 89.8353 48.6762 89.3338L49.0873 86.3621C52.2582 86.8008 55.0529 86.4833 57.573 85.6048L58.5605 88.4376ZM39.3736 86.4427C37.9949 85.8001 36.5741 85.0523 35.1084 84.1938L36.6245 81.6052C38.0167 82.4205 39.3545 83.124 40.641 83.7236L39.3736 86.4427ZM35.1084 84.1938C33.5659 83.2905 32.3799 81.9807 31.4344 80.3944L34.0114 78.8585C34.7619 80.1176 35.6156 81.0142 36.6245 81.6052L35.1084 84.1938ZM28.2712 71.2987C27.6649 68.5887 27.118 65.5255 26.5092 62.2203L29.4595 61.6769C30.0743 65.0148 30.6083 68.0043 31.1989 70.6438L28.2712 71.2987ZM24.7372 53.2505C24.1227 50.4335 23.4084 47.484 22.5402 44.4234L25.4263 43.6046C26.3148 46.7364 27.0436 49.7473 27.6683 52.6111L24.7372 53.2505ZM19.739 35.7881C18.7355 33.0614 17.5883 30.2702 16.2654 27.4283L18.9851 26.1622C20.3453 29.0841 21.5241 31.9523 22.5544 34.752L19.739 35.7881ZM12.0935 19.3803C10.6415 16.849 9.03494 14.2881 7.25284 11.7067L9.72168 10.0023C11.552 12.6536 13.203 15.2851 14.6958 17.8877L12.0935 19.3803Z" fill="#959595"/>
</svg> 