<svg xmlns="http://www.w3.org/2000/svg" width="294" height="329" viewBox="0 0 294 329" fill="none">
  <path d="M293.764 239.713V88.6802C293.752 86.4063 293.141 84.1759 291.991 82.2138C290.842 80.2516 289.196 78.6273 287.219 77.5044L153.109 1.66845C151.216 0.575471 149.068 6.10352e-05 146.882 6.10352e-05C144.696 6.10352e-05 142.549 0.575471 140.656 1.66845L6.54584 77.5044C4.56852 78.6273 2.92224 80.2516 1.77301 82.2138C0.623771 84.1759 0.0122125 86.4063 0 88.6802V239.713C0.0122125 241.987 0.623771 244.218 1.77301 246.18C2.92224 248.142 4.56852 249.766 6.54584 250.889L140.656 326.725C142.549 327.818 144.696 328.394 146.882 328.394C149.068 328.394 151.216 327.818 153.109 326.725L287.219 250.889C289.196 249.766 290.842 248.142 291.991 246.18C293.141 244.218 293.752 241.987 293.764 239.713Z" fill="url(#paint0_linear_41_588)"/>
  <defs>
    <linearGradient id="paint0_linear_41_588" x1="146.882" y1="6.10352e-05" x2="146.882" y2="328.394" gradientUnits="userSpaceOnUse">
      <stop stop-color="#04D8AC"/>
      <stop offset="1" stop-color="#2E8875"/>
    </linearGradient>
  </defs>
</svg>