<svg width="65" height="45" viewBox="0 0 65 45" fill="none" xmlns="http://www.w3.org/2000/svg">
<path id="Vector" d="M14.7735 18.0327C14.0509 18.0327 13.3575 18.1322 12.6673 18.2228C12.8909 17.5445 13.1209 16.8544 13.4903 16.2346C13.8597 15.334 14.4365 14.5533 15.0101 13.7668C15.4896 12.9159 16.3354 12.3399 16.9575 11.6119C17.6088 10.9043 18.4967 10.4336 19.1998 9.84586C19.89 9.23184 20.7941 8.92483 21.5135 8.4921C22.2652 8.10322 22.9198 7.67341 23.6197 7.46874L25.3662 6.81963L26.9022 6.24363L25.3306 0.577133L23.3961 0.998172C22.7772 1.13852 22.0222 1.30226 21.1635 1.49816C20.2854 1.64435 19.3489 2.04492 18.3055 2.41041C17.2751 2.8256 16.0826 3.1063 14.9744 3.77294C13.8597 4.41035 12.5733 4.9425 11.4392 5.79627C10.3407 6.67636 9.0154 7.4395 8.03682 8.55935C6.9675 9.6061 5.91114 10.7055 5.09133 11.9569C4.14191 13.1499 3.49708 14.4598 2.8166 15.755C2.20094 17.0503 1.70516 18.3748 1.30012 19.6614C0.532155 22.2402 0.188677 24.6904 0.0558224 26.7869C-0.0543497 28.8862 0.0104574 30.6318 0.146552 31.8949C0.195158 32.4914 0.285888 33.0703 0.350695 33.4709L0.431703 33.9621L0.515953 33.9445C1.09229 36.3738 2.41903 38.6062 4.34269 40.3835C6.26636 42.1608 8.70835 43.4103 11.3862 43.9876C14.064 44.5649 16.8682 44.4463 19.4745 43.6455C22.0807 42.8448 24.3825 41.3946 26.1135 39.4627C27.8445 37.5309 28.934 35.1963 29.256 32.7291C29.578 30.2618 29.1193 27.7627 27.933 25.5209C26.7467 23.279 24.8813 21.386 22.5525 20.0609C20.2237 18.7357 17.5267 18.0326 14.7735 18.0327ZM50.4174 18.0327C49.6948 18.0327 49.0014 18.1322 48.3112 18.2228C48.5348 17.5445 48.7648 16.8544 49.1342 16.2346C49.5036 15.334 50.0804 14.5533 50.654 13.7668C51.1335 12.9159 51.9793 12.3399 52.6014 11.6119C53.2527 10.9043 54.1406 10.4336 54.8437 9.84586C55.5339 9.23184 56.438 8.92483 57.1574 8.4921C57.9091 8.10322 58.5637 7.67341 59.2636 7.46874L61.0101 6.81963L62.5461 6.24363L60.9745 0.577133L59.04 0.998172C58.4211 1.13852 57.6661 1.30226 56.8074 1.49816C55.9293 1.64435 54.9928 2.04492 53.9494 2.41041C52.9222 2.82853 51.7265 3.1063 50.6183 3.77587C49.5036 4.41327 48.2172 4.94542 47.0831 5.7992C45.9846 6.67929 44.6593 7.44242 43.6807 8.55935C42.6114 9.6061 41.555 10.7055 40.7352 11.9569C39.7858 13.1499 39.141 14.4598 38.4605 15.755C37.8448 17.0503 37.3491 18.3748 36.944 19.6614C36.1761 22.2402 35.8326 24.6904 35.6997 26.7869C35.5896 28.8862 35.6544 30.6318 35.7905 31.8949C35.8391 32.4914 35.9298 33.0703 35.9946 33.4709L36.0756 33.9621L36.1599 33.9445C36.7362 36.3738 38.0629 38.6062 39.9866 40.3835C41.9103 42.1608 44.3523 43.4103 47.0301 43.9876C49.7079 44.5649 52.5121 44.4463 55.1184 43.6455C57.7246 42.8448 60.0264 41.3946 61.7574 39.4627C63.4884 37.5309 64.5779 35.1963 64.8999 32.7291C65.2219 30.2618 64.7632 27.7627 63.5769 25.5209C62.3906 23.279 60.5252 21.386 58.1964 20.0609C55.8676 18.7357 53.1706 18.0326 50.4174 18.0327Z" fill="black" fill-opacity="0.3"/>
</svg>
