<svg width="27" height="27" viewBox="0 0 27 27" fill="none" xmlns="http://www.w3.org/2000/svg">
<g id="PaperPlaneTilt">
<path id="Vector" d="M22.181 3.78631L2.52162 9.32342C2.35427 9.36917 2.20509 9.4654 2.09441 9.599C1.98372 9.7326 1.91691 9.89707 1.90308 10.07C1.88924 10.243 1.92906 10.416 2.01709 10.5655C2.10513 10.7149 2.23711 10.8337 2.39506 10.9054L11.4232 15.1769C11.6 15.2588 11.7421 15.4009 11.824 15.5777L16.0954 24.6058C16.1672 24.7638 16.286 24.8958 16.4354 24.9838C16.5849 25.0718 16.7579 25.1117 16.9309 25.0978C17.1038 25.084 17.2683 25.0172 17.4019 24.9065C17.5355 24.7958 17.6317 24.6466 17.6775 24.4793L23.2146 4.8199C23.2565 4.67644 23.2591 4.52434 23.2221 4.37953C23.1851 4.23472 23.1097 4.10254 23.0041 3.99685C22.8984 3.89115 22.7662 3.81584 22.6214 3.7788C22.4766 3.74176 22.3245 3.74435 22.181 3.78631Z" stroke="#323232" stroke-width="2" stroke-linecap="round" stroke-linejoin="round"/>
<path id="Vector_2" d="M11.6953 15.3035L16.4625 10.5363" stroke="#323232" stroke-width="2" stroke-linecap="round" stroke-linejoin="round"/>
</g>
</svg>
