<svg width="22" height="26" viewBox="0 0 22 26" fill="none" xmlns="http://www.w3.org/2000/svg">
<g id="google-play-store logo" clip-path="url(#clip0_41_1690)">
<path id="Vector" d="M13.7729 8.48419L0.791038 0.874779C0.62791 0.777638 0.422684 0.783035 0.264819 0.880176C0.101691 0.977317 0.00170898 1.15001 0.00170898 1.3443C0.00170898 1.3443 0.00697118 2.04587 0.0122334 3.20078L9.46839 12.8987L13.7729 8.48419Z" fill="url(#paint0_linear_41_1690)"/>
<path id="Vector_2" d="M0.0123291 3.20081C0.0281157 7.36709 0.0754754 17.4806 0.0965242 22.5158L9.47375 12.8988L0.0123291 3.20081Z" fill="url(#paint1_linear_41_1690)"/>
<path id="Vector_3" d="M21.2032 12.8394L13.773 8.48425L9.46326 12.8988L14.3255 17.8854L21.2085 13.7731C21.3716 13.6759 21.4716 13.4978 21.4716 13.3089C21.4716 13.1147 21.3663 12.9366 21.2032 12.8394Z" fill="url(#paint2_linear_41_1690)"/>
<path id="Vector_4" d="M0.0913086 22.5158C0.101833 24.3129 0.107095 25.4624 0.107095 25.4624C0.107095 25.6567 0.207077 25.8348 0.370205 25.9265C0.533333 26.0237 0.733296 26.0237 0.896424 25.9265L14.3308 17.8908L9.46854 12.9042L0.0913086 22.5158Z" fill="url(#paint3_linear_41_1690)"/>
</g>
<defs>
<linearGradient id="paint0_linear_41_1690" x1="0.00170898" y1="6.85405" x2="13.7753" y2="6.85405" gradientUnits="userSpaceOnUse">
<stop stop-color="#63BE6B"/>
<stop offset="0.506" stop-color="#5BBC6A"/>
<stop offset="1" stop-color="#4AB96A"/>
</linearGradient>
<linearGradient id="paint1_linear_41_1690" x1="0.00980325" y1="12.8606" x2="9.46828" y2="12.8606" gradientUnits="userSpaceOnUse">
<stop stop-color="#3EC6F2"/>
<stop offset="1" stop-color="#45AFE3"/>
</linearGradient>
<linearGradient id="paint2_linear_41_1690" x1="9.46831" y1="13.1883" x2="21.4703" y2="13.1883" gradientUnits="userSpaceOnUse">
<stop stop-color="#FAA51A"/>
<stop offset="0.387" stop-color="#FAB716"/>
<stop offset="0.741" stop-color="#FAC412"/>
<stop offset="1" stop-color="#FAC80F"/>
</linearGradient>
<linearGradient id="paint3_linear_41_1690" x1="0.093624" y1="19.4516" x2="14.3306" y2="19.4516" gradientUnits="userSpaceOnUse">
<stop stop-color="#EC3B50"/>
<stop offset="1" stop-color="#E7515B"/>
</linearGradient>
<clipPath id="clip0_41_1690">
<rect width="21.4735" height="25.1974" fill="white" transform="translate(0 0.804688)"/>
</clipPath>
</defs>
</svg>
