<svg width="19" height="25" viewBox="0 0 19 25" fill="none" xmlns="http://www.w3.org/2000/svg">
<path id="Vector" d="M18.6018 19.5729C18.2607 20.4166 17.8569 21.1932 17.3891 21.9072C16.7514 22.8805 16.2292 23.5542 15.8268 23.9284C15.2031 24.5425 14.5347 24.857 13.8191 24.8749C13.3053 24.8749 12.6857 24.7183 11.9645 24.4009C11.2409 24.0849 10.5759 23.9284 9.96783 23.9284C9.33013 23.9284 8.64621 24.0849 7.91467 24.4009C7.18202 24.7183 6.5918 24.8838 6.14054 24.9002C5.45425 24.9315 4.77019 24.608 4.08738 23.9284C3.65158 23.5214 3.10647 22.8238 2.45346 21.8356C1.75283 20.7803 1.17681 19.5565 0.725553 18.1614C0.242269 16.6544 0 15.1952 0 13.7824C0 12.1641 0.326645 10.7684 0.98091 9.59874C1.4951 8.65924 2.17917 7.91813 3.03532 7.37408C3.89148 6.83003 4.81655 6.55278 5.81278 6.53505C6.35789 6.53505 7.07272 6.71555 7.96104 7.07031C8.84685 7.42625 9.41562 7.60676 9.66499 7.60676C9.85143 7.60676 10.4833 7.39569 11.5544 6.97491C12.5673 6.58468 13.4222 6.42311 14.1226 6.48675C16.0204 6.65071 17.4461 7.45159 18.3943 8.89445C16.6971 9.99537 15.8575 11.5374 15.8742 13.5155C15.8895 15.0563 16.4116 16.3384 17.4378 17.3565C17.9028 17.829 18.4222 18.1942 19 18.4535C18.8747 18.8426 18.7424 19.2152 18.6018 19.5729ZM14.2493 1.23761C14.2493 2.44527 13.8372 3.57286 13.0157 4.61655C12.0243 5.85729 10.8252 6.57425 9.52492 6.46111C9.50836 6.31623 9.49875 6.16375 9.49875 6.00351C9.49875 4.84416 9.9702 3.60342 10.8074 2.58895C11.2254 2.0753 11.757 1.64821 12.4017 1.30752C13.0449 0.971902 13.6534 0.7863 14.2256 0.754517C14.2423 0.915962 14.2493 1.07742 14.2493 1.23759V1.23761Z" fill="white"/>
</svg>
