<svg width="15" height="15" viewBox="0 0 15 15" fill="none" xmlns="http://www.w3.org/2000/svg">
<path id="Vector" d="M3.35751 15H0.247713V4.98549H3.35751V15ZM1.80094 3.61942C0.806739 3.61942 0 2.79576 0 1.80134C0 0.80692 0.806739 0 1.80094 0C2.79513 0 3.60187 0.80692 3.60187 1.80134C3.60187 2.79576 2.79513 3.61942 1.80094 3.61942ZM14.9967 15H11.8935V10.125C11.8935 8.96317 11.8701 7.47321 10.2767 7.47321C8.6599 7.47321 8.41218 8.73549 8.41218 10.0413V15H5.30574V4.98549H8.28833V6.35156H8.33185C8.74693 5.56473 9.76121 4.73437 11.2743 4.73437C14.4209 4.73437 15 6.80692 15 9.49888V15H14.9967Z" fill="white"/>
</svg>
