<svg width="15" height="14" viewBox="0 0 15 14" fill="none" xmlns="http://www.w3.org/2000/svg">
<g id="twitter logo" clip-path="url(#clip0_41_584)">
<path id="Vector" d="M14.7658 1.65632C14.2227 1.93749 13.6394 2.12756 13.026 2.213C13.652 1.77569 14.1315 1.08271 14.3579 0.257952C13.7633 0.66998 13.1126 0.960048 12.434 1.11556C11.8817 0.428779 11.0942 0 10.2229 0C8.55054 0 7.19426 1.58169 7.19426 3.53391C7.19426 3.81052 7.22096 4.08038 7.2723 4.33947C4.75479 4.19186 2.52286 2.78497 1.02891 0.647183C0.768049 1.16929 0.618732 1.77633 0.618732 2.42402C0.618732 3.64991 1.15356 4.73153 1.96622 5.36512C1.48514 5.34773 1.01461 5.19623 0.593983 4.9233V4.96795C0.593983 6.68033 1.63795 8.10817 3.02375 8.4329C2.76918 8.51427 2.50202 8.55679 2.22564 8.55679C2.03022 8.55679 1.84064 8.53521 1.65543 8.49457C2.0409 9.89809 3.15958 10.9197 4.4847 10.9486C3.44801 11.8967 2.14173 12.4619 0.722968 12.4619C0.478603 12.4619 0.237093 12.4449 0 12.4115C1.34072 13.4145 2.93261 14 4.64329 14C10.2147 14 13.2617 8.61508 13.2617 3.94522C13.2617 3.79191 13.2588 3.63974 13.2524 3.48812C13.8461 2.98716 14.3586 2.36688 14.7658 1.65632Z" fill="white"/>
</g>
<defs>
<clipPath id="clip0_41_584">
<rect width="15" height="14" fill="white"/>
</clipPath>
</defs>
</svg>
