<svg width="15" height="15" viewBox="0 0 15 15" fill="none" xmlns="http://www.w3.org/2000/svg">
<g id="instagram logo" clip-path="url(#clip0_41_579)">
<g id="Group">
<g id="Group_2">
<path id="Vector" d="M5.0006 7.5C5.0006 6.11934 6.11959 4.9998 7.5003 4.9998C8.88102 4.9998 10.0006 6.11934 10.0006 7.5C10.0006 8.88066 8.88102 10.0002 7.5003 10.0002C6.11959 10.0002 5.0006 8.88066 5.0006 7.5ZM3.64899 7.5C3.64899 9.627 5.37322 11.3512 7.5003 11.3512C9.62739 11.3512 11.3516 9.627 11.3516 7.5C11.3516 5.373 9.62739 3.64884 7.5003 3.64884C5.37322 3.64884 3.64899 5.373 3.64899 7.5ZM10.604 3.49614C10.6038 3.9932 11.0066 4.3963 11.5037 4.3965C12.0008 4.3967 12.4039 3.99392 12.4041 3.49686C12.4043 2.9998 12.0015 2.5967 11.5044 2.5965C11.0076 2.59673 10.6045 2.99932 10.604 3.49614ZM4.47018 13.6048C3.73893 13.5715 3.34147 13.4497 3.07734 13.3468C2.72717 13.2105 2.47732 13.0481 2.21463 12.7858C1.95194 12.5235 1.78933 12.2739 1.65361 11.9237C1.55064 11.6597 1.42884 11.2622 1.3956 10.531C1.35923 9.7404 1.35197 9.50292 1.35197 7.50006C1.35197 5.4972 1.35983 5.26038 1.3956 4.46916C1.4289 3.73794 1.5516 3.34116 1.65361 3.07638C1.78993 2.72622 1.9523 2.47638 2.21463 2.2137C2.47696 1.95102 2.72657 1.78842 3.07734 1.6527C3.34135 1.54974 3.73893 1.42794 4.47018 1.3947C5.26077 1.35834 5.49826 1.35108 7.5003 1.35108C9.50234 1.35108 9.74007 1.35894 10.5313 1.3947C11.2626 1.428 11.6594 1.5507 11.9242 1.6527C12.2743 1.78842 12.5242 1.95138 12.7869 2.2137C13.0496 2.47602 13.2116 2.72622 13.3479 3.07638C13.4509 3.34038 13.5727 3.73794 13.6059 4.46916C13.6423 5.26038 13.6495 5.4972 13.6495 7.50006C13.6495 9.50292 13.6423 9.73974 13.6059 10.531C13.5726 11.2622 13.4502 11.6596 13.3479 11.9237C13.2116 12.2739 13.0492 12.5237 12.7869 12.7858C12.5245 13.0479 12.2743 13.2105 11.9242 13.3468C11.6601 13.4498 11.2626 13.5716 10.5313 13.6048C9.74073 13.6412 9.50324 13.6484 7.5003 13.6484C5.49736 13.6484 5.26053 13.6412 4.47018 13.6048ZM4.40808 0.04542C3.60962 0.08178 3.06402 0.20838 2.58754 0.39378C2.09408 0.58524 1.67635 0.8421 1.25891 1.25886C0.841474 1.67562 0.585263 2.094 0.393796 2.58744C0.208388 3.0642 0.0817833 3.60948 0.0454218 4.4079C0.00846034 5.20758 0 5.46324 0 7.5C0 9.53676 0.00846034 9.79242 0.0454218 10.5921C0.0817833 11.3906 0.208388 11.9358 0.393796 12.4126C0.585263 12.9057 0.841534 13.3246 1.25891 13.7411C1.67629 14.1577 2.09408 14.4142 2.58754 14.6062C3.06492 14.7916 3.60962 14.9182 4.40808 14.9546C5.20821 14.9909 5.46346 15 7.5003 15C9.53714 15 9.79281 14.9915 10.5925 14.9546C11.391 14.9182 11.9363 14.7916 12.4131 14.6062C12.9062 14.4142 13.3243 14.1579 13.7417 13.7411C14.1591 13.3244 14.4148 12.9057 14.6068 12.4126C14.7922 11.9358 14.9194 11.3905 14.9552 10.5921C14.9915 9.79182 15 9.53676 15 7.5C15 5.46324 14.9915 5.20758 14.9552 4.4079C14.9188 3.60942 14.7922 3.0639 14.6068 2.58744C14.4148 2.0943 14.1585 1.67628 13.7417 1.25886C13.3249 0.84144 12.9062 0.58524 12.4137 0.39378C11.9363 0.20838 11.391 0.08118 10.5931 0.04542C9.79341 0.00906 9.53774 0 7.5009 0C5.46406 0 5.20821 0.00846 4.40808 0.04542Z" fill="white"/>
</g>
</g>
</g>
<defs>
<clipPath id="clip0_41_579">
<rect width="15" height="15" fill="white"/>
</clipPath>
</defs>
</svg>
